# xmcd
#
# Track frame offsets:
#   150
#   16397
#   33634
#   45253
#   61661
#   75411
#   92595
#   108243
#   125776
#   139568
#   155749
#   169173
#   182246
#   202051
#   212385
#   228714
#   243580
#   257931
#   270667
#
# Disc length: 3832 seconds
#
# Revision: 0
# Processed by: cddbd v1.5PL3 Copyright (c) Steve Scherf et al.
# Submitted via: Media_Universe 3.0
#
DISCID=080ef613
DTITLE=Chely Wright - Right In The Middle Of It/Woman In The Moon
DYEAR=1900
DGENRE=Country
TTITLE0=Listen To The Radio 
TTITLE1=The Love That We Lost
TTITLE2=Heart Shaped World
TTITLE3=The Love That He Left Behind
TTITLE4=Right In The Middle Of It
TTITLE5=What I Learned From Loving You
TTITLE6=Alligator Purse
TTITLE7=The Other Woman
TTITLE8=Day One
TTITLE9=It's Not Too Late
TTITLE10=Till I Was Loved By You
TTITLE11=He's A Good Ole Boy
TTITLE12=Till All Her Tears Are Dry
TTITLE13=Go On And Go
TTITLE14=Sea Of Cowboy Hats
TTITLE15=I Love You Enough To Let You Go
TTITLE16=Nobody But A Fool
TTITLE17=He Don;'t Do Bars Anymore
TTITLE18=The Last Supper
EXTD=
EXTT0=
EXTT1=
EXTT2=
EXTT3=
EXTT4=
EXTT5=
EXTT6=
EXTT7=
EXTT8=
EXTT9=
EXTT10=
EXTT11=
EXTT12=
EXTT13=
EXTT14=
EXTT15=
EXTT16=
EXTT17=
EXTT18=
PLAYORDER=
